<mxfile host="app.diagrams.net" agent="Mozilla/5.0 (Windows NT 10.0; Win64; x64) AppleWebKit/537.36 (KHTML, like Gecko) Chrome/131.0.0.0 Safari/537.36" version="26.0.8">
  <diagram name="Page-1" id="Mhqm58DLH19ROgsUyenH">
    <mxGraphModel dx="1434" dy="738" grid="1" gridSize="10" guides="1" tooltips="1" connect="1" arrows="1" fold="1" page="1" pageScale="1" pageWidth="827" pageHeight="1169" math="0" shadow="0">
      <root>
        <mxCell id="0" />
        <mxCell id="1" parent="0" />
        <mxCell id="m1hSSFkCQLerAp_BKIPr-11" value="" style="edgeStyle=orthogonalEdgeStyle;rounded=0;orthogonalLoop=1;jettySize=auto;html=1;" edge="1" parent="1" source="m1hSSFkCQLerAp_BKIPr-1" target="m1hSSFkCQLerAp_BKIPr-3">
          <mxGeometry relative="1" as="geometry" />
        </mxCell>
        <mxCell id="m1hSSFkCQLerAp_BKIPr-1" value="Start" style="ellipse;whiteSpace=wrap;html=1;" vertex="1" parent="1">
          <mxGeometry x="340" y="30" width="120" height="80" as="geometry" />
        </mxCell>
        <mxCell id="m1hSSFkCQLerAp_BKIPr-8" value="" style="edgeStyle=orthogonalEdgeStyle;rounded=0;orthogonalLoop=1;jettySize=auto;html=1;" edge="1" parent="1" source="m1hSSFkCQLerAp_BKIPr-2" target="m1hSSFkCQLerAp_BKIPr-4">
          <mxGeometry relative="1" as="geometry" />
        </mxCell>
        <mxCell id="m1hSSFkCQLerAp_BKIPr-12" value="" style="edgeStyle=orthogonalEdgeStyle;rounded=0;orthogonalLoop=1;jettySize=auto;html=1;" edge="1" parent="1" source="m1hSSFkCQLerAp_BKIPr-2" target="m1hSSFkCQLerAp_BKIPr-6">
          <mxGeometry relative="1" as="geometry" />
        </mxCell>
        <mxCell id="m1hSSFkCQLerAp_BKIPr-2" value="Check if Database Exists" style="rhombus;whiteSpace=wrap;html=1;" vertex="1" parent="1">
          <mxGeometry x="325" y="320" width="150" height="150" as="geometry" />
        </mxCell>
        <mxCell id="m1hSSFkCQLerAp_BKIPr-10" value="" style="edgeStyle=orthogonalEdgeStyle;rounded=0;orthogonalLoop=1;jettySize=auto;html=1;" edge="1" parent="1" source="m1hSSFkCQLerAp_BKIPr-3" target="m1hSSFkCQLerAp_BKIPr-2">
          <mxGeometry relative="1" as="geometry" />
        </mxCell>
        <mxCell id="m1hSSFkCQLerAp_BKIPr-3" value="The function begins with input parameters: &lt;code&gt;databaseName&lt;/code&gt;, &lt;code&gt;tblName&lt;/code&gt;, &lt;code&gt;condColumn&lt;/code&gt;, and &lt;code&gt;condValue&lt;/code&gt;." style="rounded=0;whiteSpace=wrap;html=1;" vertex="1" parent="1">
          <mxGeometry x="250" y="190" width="300" height="60" as="geometry" />
        </mxCell>
        <mxCell id="m1hSSFkCQLerAp_BKIPr-61" style="edgeStyle=orthogonalEdgeStyle;rounded=0;orthogonalLoop=1;jettySize=auto;html=1;" edge="1" parent="1" source="m1hSSFkCQLerAp_BKIPr-4">
          <mxGeometry relative="1" as="geometry">
            <mxPoint x="810" y="1110" as="targetPoint" />
          </mxGeometry>
        </mxCell>
        <mxCell id="m1hSSFkCQLerAp_BKIPr-4" value="Print &lt;code&gt;&quot;Database not found&quot;&lt;/code&gt;" style="shape=parallelogram;perimeter=parallelogramPerimeter;whiteSpace=wrap;html=1;fixedSize=1;" vertex="1" parent="1">
          <mxGeometry x="540" y="365" width="180" height="60" as="geometry" />
        </mxCell>
        <mxCell id="m1hSSFkCQLerAp_BKIPr-9" value="" style="edgeStyle=orthogonalEdgeStyle;rounded=0;orthogonalLoop=1;jettySize=auto;html=1;" edge="1" parent="1" source="m1hSSFkCQLerAp_BKIPr-6" target="m1hSSFkCQLerAp_BKIPr-7">
          <mxGeometry relative="1" as="geometry" />
        </mxCell>
        <mxCell id="m1hSSFkCQLerAp_BKIPr-51" value="" style="edgeStyle=orthogonalEdgeStyle;rounded=0;orthogonalLoop=1;jettySize=auto;html=1;" edge="1" parent="1" source="m1hSSFkCQLerAp_BKIPr-6" target="m1hSSFkCQLerAp_BKIPr-13">
          <mxGeometry relative="1" as="geometry" />
        </mxCell>
        <mxCell id="m1hSSFkCQLerAp_BKIPr-6" value="&lt;strong&gt;Check if Table Exists&lt;/strong&gt;" style="rhombus;whiteSpace=wrap;html=1;" vertex="1" parent="1">
          <mxGeometry x="325" y="560" width="150" height="150" as="geometry" />
        </mxCell>
        <mxCell id="m1hSSFkCQLerAp_BKIPr-60" style="edgeStyle=orthogonalEdgeStyle;rounded=0;orthogonalLoop=1;jettySize=auto;html=1;" edge="1" parent="1" source="m1hSSFkCQLerAp_BKIPr-7">
          <mxGeometry relative="1" as="geometry">
            <mxPoint x="810" y="635" as="targetPoint" />
          </mxGeometry>
        </mxCell>
        <mxCell id="m1hSSFkCQLerAp_BKIPr-7" value="Print &lt;code&gt;&quot;Table missing&quot;&lt;/code&gt;" style="shape=parallelogram;perimeter=parallelogramPerimeter;whiteSpace=wrap;html=1;fixedSize=1;" vertex="1" parent="1">
          <mxGeometry x="540" y="605" width="180" height="60" as="geometry" />
        </mxCell>
        <mxCell id="m1hSSFkCQLerAp_BKIPr-50" value="" style="edgeStyle=orthogonalEdgeStyle;rounded=0;orthogonalLoop=1;jettySize=auto;html=1;" edge="1" parent="1" source="m1hSSFkCQLerAp_BKIPr-13" target="m1hSSFkCQLerAp_BKIPr-14">
          <mxGeometry relative="1" as="geometry" />
        </mxCell>
        <mxCell id="m1hSSFkCQLerAp_BKIPr-13" value="Proceed to retrieve the table." style="rounded=0;whiteSpace=wrap;html=1;" vertex="1" parent="1">
          <mxGeometry x="340" y="770" width="120" height="60" as="geometry" />
        </mxCell>
        <mxCell id="m1hSSFkCQLerAp_BKIPr-49" value="" style="edgeStyle=orthogonalEdgeStyle;rounded=0;orthogonalLoop=1;jettySize=auto;html=1;" edge="1" parent="1" source="m1hSSFkCQLerAp_BKIPr-14" target="m1hSSFkCQLerAp_BKIPr-16">
          <mxGeometry relative="1" as="geometry" />
        </mxCell>
        <mxCell id="m1hSSFkCQLerAp_BKIPr-14" value="&amp;nbsp;Loop through &lt;code&gt;myTable.columns&lt;/code&gt; to find the index of &lt;code&gt;condColumn&lt;/code&gt;." style="rounded=0;whiteSpace=wrap;html=1;" vertex="1" parent="1">
          <mxGeometry x="250" y="900" width="300" height="60" as="geometry" />
        </mxCell>
        <mxCell id="m1hSSFkCQLerAp_BKIPr-48" value="" style="edgeStyle=orthogonalEdgeStyle;rounded=0;orthogonalLoop=1;jettySize=auto;html=1;" edge="1" parent="1" source="m1hSSFkCQLerAp_BKIPr-16" target="m1hSSFkCQLerAp_BKIPr-18">
          <mxGeometry relative="1" as="geometry" />
        </mxCell>
        <mxCell id="m1hSSFkCQLerAp_BKIPr-57" value="" style="edgeStyle=orthogonalEdgeStyle;rounded=0;orthogonalLoop=1;jettySize=auto;html=1;" edge="1" parent="1" source="m1hSSFkCQLerAp_BKIPr-16" target="m1hSSFkCQLerAp_BKIPr-17">
          <mxGeometry relative="1" as="geometry" />
        </mxCell>
        <mxCell id="m1hSSFkCQLerAp_BKIPr-16" value="&lt;h4&gt;&lt;strong&gt;Check if Condition Column Found&lt;/strong&gt;&lt;/h4&gt;" style="rhombus;whiteSpace=wrap;html=1;" vertex="1" parent="1">
          <mxGeometry x="325" y="1030" width="150" height="150" as="geometry" />
        </mxCell>
        <mxCell id="m1hSSFkCQLerAp_BKIPr-58" style="edgeStyle=orthogonalEdgeStyle;rounded=0;orthogonalLoop=1;jettySize=auto;html=1;entryX=1;entryY=0.5;entryDx=0;entryDy=0;" edge="1" parent="1" source="m1hSSFkCQLerAp_BKIPr-17" target="m1hSSFkCQLerAp_BKIPr-47">
          <mxGeometry relative="1" as="geometry">
            <Array as="points">
              <mxPoint x="810" y="1105" />
              <mxPoint x="810" y="2270" />
            </Array>
          </mxGeometry>
        </mxCell>
        <mxCell id="m1hSSFkCQLerAp_BKIPr-17" value="Print &quot;Condition column not found&quot;" style="shape=parallelogram;perimeter=parallelogramPerimeter;whiteSpace=wrap;html=1;fixedSize=1;" vertex="1" parent="1">
          <mxGeometry x="540" y="1075" width="180" height="60" as="geometry" />
        </mxCell>
        <mxCell id="m1hSSFkCQLerAp_BKIPr-38" style="edgeStyle=orthogonalEdgeStyle;rounded=0;orthogonalLoop=1;jettySize=auto;html=1;entryX=0.5;entryY=0;entryDx=0;entryDy=0;" edge="1" parent="1" source="m1hSSFkCQLerAp_BKIPr-18" target="m1hSSFkCQLerAp_BKIPr-35">
          <mxGeometry relative="1" as="geometry" />
        </mxCell>
        <mxCell id="m1hSSFkCQLerAp_BKIPr-18" value="Start Deleting Rows&lt;div&gt;&lt;br&gt;&lt;/div&gt;&lt;div&gt;Loop through &lt;code&gt;myTable.rows&lt;/code&gt;:&lt;ul&gt;&lt;li&gt;Strip quotes from both the current row&#39;s value and the &lt;code&gt;condValue&lt;/code&gt;.&lt;/li&gt;&lt;li&gt;Check if the values match (numerically or as strings).&lt;/li&gt;&lt;/ul&gt;&lt;/div&gt;" style="rounded=0;whiteSpace=wrap;html=1;" vertex="1" parent="1">
          <mxGeometry x="260" y="1260" width="280" height="130" as="geometry" />
        </mxCell>
        <mxCell id="m1hSSFkCQLerAp_BKIPr-41" style="edgeStyle=orthogonalEdgeStyle;rounded=0;orthogonalLoop=1;jettySize=auto;html=1;entryX=0;entryY=0.5;entryDx=0;entryDy=0;" edge="1" parent="1" source="m1hSSFkCQLerAp_BKIPr-35" target="m1hSSFkCQLerAp_BKIPr-37">
          <mxGeometry relative="1" as="geometry" />
        </mxCell>
        <mxCell id="m1hSSFkCQLerAp_BKIPr-43" value="" style="edgeStyle=orthogonalEdgeStyle;rounded=0;orthogonalLoop=1;jettySize=auto;html=1;" edge="1" parent="1" source="m1hSSFkCQLerAp_BKIPr-35" target="m1hSSFkCQLerAp_BKIPr-36">
          <mxGeometry relative="1" as="geometry" />
        </mxCell>
        <mxCell id="m1hSSFkCQLerAp_BKIPr-35" value="&lt;h4&gt;Check Match for Row&lt;/h4&gt;" style="rhombus;whiteSpace=wrap;html=1;" vertex="1" parent="1">
          <mxGeometry x="325" y="1510" width="150" height="150" as="geometry" />
        </mxCell>
        <mxCell id="m1hSSFkCQLerAp_BKIPr-52" value="" style="edgeStyle=orthogonalEdgeStyle;rounded=0;orthogonalLoop=1;jettySize=auto;html=1;" edge="1" parent="1" source="m1hSSFkCQLerAp_BKIPr-36" target="m1hSSFkCQLerAp_BKIPr-44">
          <mxGeometry relative="1" as="geometry" />
        </mxCell>
        <mxCell id="m1hSSFkCQLerAp_BKIPr-36" value="Delete the row, adjust the index (&lt;code&gt;r--&lt;/code&gt;), and mark &lt;code&gt;didDelete = true&lt;/code&gt;." style="rounded=0;whiteSpace=wrap;html=1;" vertex="1" parent="1">
          <mxGeometry x="240" y="1754" width="320" height="60" as="geometry" />
        </mxCell>
        <mxCell id="m1hSSFkCQLerAp_BKIPr-39" style="edgeStyle=orthogonalEdgeStyle;rounded=0;orthogonalLoop=1;jettySize=auto;html=1;" edge="1" parent="1" source="m1hSSFkCQLerAp_BKIPr-37">
          <mxGeometry relative="1" as="geometry">
            <mxPoint x="400" y="1450" as="targetPoint" />
            <Array as="points">
              <mxPoint x="660" y="1450" />
              <mxPoint x="401" y="1450" />
            </Array>
          </mxGeometry>
        </mxCell>
        <mxCell id="m1hSSFkCQLerAp_BKIPr-37" value="&amp;nbsp;Continue to the next row." style="rounded=0;whiteSpace=wrap;html=1;" vertex="1" parent="1">
          <mxGeometry x="600" y="1555" width="140" height="60" as="geometry" />
        </mxCell>
        <mxCell id="m1hSSFkCQLerAp_BKIPr-42" value="No" style="text;html=1;align=center;verticalAlign=middle;resizable=0;points=[];autosize=1;strokeColor=none;fillColor=none;" vertex="1" parent="1">
          <mxGeometry x="450" y="1548" width="40" height="30" as="geometry" />
        </mxCell>
        <mxCell id="m1hSSFkCQLerAp_BKIPr-53" value="" style="edgeStyle=orthogonalEdgeStyle;rounded=0;orthogonalLoop=1;jettySize=auto;html=1;" edge="1" parent="1" source="m1hSSFkCQLerAp_BKIPr-44" target="m1hSSFkCQLerAp_BKIPr-46">
          <mxGeometry relative="1" as="geometry" />
        </mxCell>
        <mxCell id="m1hSSFkCQLerAp_BKIPr-54" value="" style="edgeStyle=orthogonalEdgeStyle;rounded=0;orthogonalLoop=1;jettySize=auto;html=1;" edge="1" parent="1" source="m1hSSFkCQLerAp_BKIPr-44" target="m1hSSFkCQLerAp_BKIPr-45">
          <mxGeometry relative="1" as="geometry" />
        </mxCell>
        <mxCell id="m1hSSFkCQLerAp_BKIPr-44" value="&lt;h4&gt;Check if Any Rows Were Deleted&lt;/h4&gt;" style="rhombus;whiteSpace=wrap;html=1;" vertex="1" parent="1">
          <mxGeometry x="325" y="1870" width="150" height="150" as="geometry" />
        </mxCell>
        <mxCell id="m1hSSFkCQLerAp_BKIPr-55" style="edgeStyle=orthogonalEdgeStyle;rounded=0;orthogonalLoop=1;jettySize=auto;html=1;entryX=1;entryY=0.5;entryDx=0;entryDy=0;" edge="1" parent="1" source="m1hSSFkCQLerAp_BKIPr-45" target="m1hSSFkCQLerAp_BKIPr-47">
          <mxGeometry relative="1" as="geometry">
            <Array as="points">
              <mxPoint x="680" y="2270" />
            </Array>
          </mxGeometry>
        </mxCell>
        <mxCell id="m1hSSFkCQLerAp_BKIPr-45" value="Print &lt;code&gt;&quot;Rows deleted&quot;&lt;/code&gt; and display the remaining table" style="shape=parallelogram;perimeter=parallelogramPerimeter;whiteSpace=wrap;html=1;fixedSize=1;" vertex="1" parent="1">
          <mxGeometry x="560" y="1915" width="240" height="60" as="geometry" />
        </mxCell>
        <mxCell id="m1hSSFkCQLerAp_BKIPr-56" value="" style="edgeStyle=orthogonalEdgeStyle;rounded=0;orthogonalLoop=1;jettySize=auto;html=1;" edge="1" parent="1" source="m1hSSFkCQLerAp_BKIPr-46" target="m1hSSFkCQLerAp_BKIPr-47">
          <mxGeometry relative="1" as="geometry" />
        </mxCell>
        <mxCell id="m1hSSFkCQLerAp_BKIPr-46" value="Print &quot;Nothing to delete&quot;" style="shape=parallelogram;perimeter=parallelogramPerimeter;whiteSpace=wrap;html=1;fixedSize=1;" vertex="1" parent="1">
          <mxGeometry x="280" y="2100" width="240" height="60" as="geometry" />
        </mxCell>
        <mxCell id="m1hSSFkCQLerAp_BKIPr-47" value="End" style="ellipse;whiteSpace=wrap;html=1;" vertex="1" parent="1">
          <mxGeometry x="340" y="2230" width="120" height="80" as="geometry" />
        </mxCell>
        <mxCell id="m1hSSFkCQLerAp_BKIPr-62" value="No" style="text;html=1;align=center;verticalAlign=middle;resizable=0;points=[];autosize=1;strokeColor=none;fillColor=none;" vertex="1" parent="1">
          <mxGeometry x="475" y="370" width="40" height="30" as="geometry" />
        </mxCell>
        <mxCell id="m1hSSFkCQLerAp_BKIPr-63" value="No" style="text;html=1;align=center;verticalAlign=middle;resizable=0;points=[];autosize=1;strokeColor=none;fillColor=none;" vertex="1" parent="1">
          <mxGeometry x="470" y="605" width="40" height="30" as="geometry" />
        </mxCell>
        <mxCell id="m1hSSFkCQLerAp_BKIPr-64" value="No" style="text;html=1;align=center;verticalAlign=middle;resizable=0;points=[];autosize=1;strokeColor=none;fillColor=none;" vertex="1" parent="1">
          <mxGeometry x="470" y="1075" width="40" height="30" as="geometry" />
        </mxCell>
        <mxCell id="m1hSSFkCQLerAp_BKIPr-65" value="No" style="text;html=1;align=center;verticalAlign=middle;resizable=0;points=[];autosize=1;strokeColor=none;fillColor=none;" vertex="1" parent="1">
          <mxGeometry x="470" y="1915" width="40" height="30" as="geometry" />
        </mxCell>
        <mxCell id="m1hSSFkCQLerAp_BKIPr-66" value="Yes" style="text;html=1;align=center;verticalAlign=middle;resizable=0;points=[];autosize=1;strokeColor=none;fillColor=none;" vertex="1" parent="1">
          <mxGeometry x="410" y="458" width="40" height="30" as="geometry" />
        </mxCell>
        <mxCell id="m1hSSFkCQLerAp_BKIPr-67" value="Yes" style="text;html=1;align=center;verticalAlign=middle;resizable=0;points=[];autosize=1;strokeColor=none;fillColor=none;" vertex="1" parent="1">
          <mxGeometry x="400" y="700" width="40" height="30" as="geometry" />
        </mxCell>
        <mxCell id="m1hSSFkCQLerAp_BKIPr-68" value="Yes" style="text;html=1;align=center;verticalAlign=middle;resizable=0;points=[];autosize=1;strokeColor=none;fillColor=none;" vertex="1" parent="1">
          <mxGeometry x="410" y="1169" width="40" height="30" as="geometry" />
        </mxCell>
        <mxCell id="m1hSSFkCQLerAp_BKIPr-69" value="Yes" style="text;html=1;align=center;verticalAlign=middle;resizable=0;points=[];autosize=1;strokeColor=none;fillColor=none;" vertex="1" parent="1">
          <mxGeometry x="400" y="1660" width="40" height="30" as="geometry" />
        </mxCell>
        <mxCell id="m1hSSFkCQLerAp_BKIPr-70" value="Yes" style="text;html=1;align=center;verticalAlign=middle;resizable=0;points=[];autosize=1;strokeColor=none;fillColor=none;" vertex="1" parent="1">
          <mxGeometry x="400" y="2010" width="40" height="30" as="geometry" />
        </mxCell>
      </root>
    </mxGraphModel>
  </diagram>
</mxfile>
